<svg width="1273" height="1080" viewBox="0 0 1273 1080" fill="none" xmlns="http://www.w3.org/2000/svg">
<path d="M827.873 503.576V481.848L905.998 361.242H939.201V480.871H963.371V503.576H939.201V538H913.811V503.576H827.873ZM856.193 480.871H913.811V393.225H911.857L856.193 479.406V480.871Z" fill="white"/>
<path d="M444.873 503.576V481.848L522.998 361.242H556.201V480.871H580.371V503.576H556.201V538H530.811V503.576H444.873ZM473.193 480.871H530.811V393.225H528.857L473.193 479.406V480.871Z" fill="white"/>
<circle cx="704" cy="450" r="91" stroke="white" stroke-width="20"/>
<path d="M2.5 -2C9.66667 24.3333 38.4 75.1 96 67.5C111 64.3333 151 52 191 28C200.5 22.5 219.2 14.8 218 28C214.667 37 203.2 59.9 184 79.5C160 106.833 126.4 156.7 184 137.5C221.5 123.667 311.4 88.4 371 58C383.167 51.3333 405.6 43.9 398 67.5C390.5 82.8333 366.8 124.3 332 167.5C304.5 202.167 260.3 268.8 303.5 258C326.833 249.333 386.8 223.4 440 189L521.5 137.5C544.5 120.5 603.5 94.6 655.5 127C671.833 135.5 704.2 168.5 703 232.5" stroke="white" stroke-width="4"/>
<path d="M704.5 545C685.833 588.833 667.4 685.8 743 723C758.5 735.5 827.3 750.8 978.5 712C1034.17 699.167 1133.6 683.4 1086 723C1076 732.667 1044.4 759.7 998 790.5C955.833 814.667 887.5 862.3 951.5 859.5C1036.5 851.5 1201 842.2 1179 869C1171.67 876.333 1151.8 893.9 1131 905.5C1104.17 921 1057.6 952 1086 952C1132.67 944 1230.1 935.7 1246.5 966.5C1257 976.667 1276.1 1013.7 1268.5 1080.5" stroke="white" stroke-width="4"/>
<rect x="697" y="205" width="12" height="32" rx="2" fill="white"/>
<path d="M691 236.5H705.5H717.5C718.605 236.5 719.5 237.395 719.5 238.5V249.153C719.5 249.695 719.719 250.213 720.108 250.589L735.392 265.411C735.781 265.787 736 266.305 736 266.847V307C736 308.105 735.105 309 734 309H674C672.895 309 672 308.105 672 307V266.864C672 266.313 672.228 265.786 672.629 265.408L688.371 250.592C688.772 250.214 689 249.687 689 249.136V238.5C689 237.395 689.895 236.5 691 236.5Z" stroke="white" stroke-width="5"/>
<rect x="662" y="301" width="83" height="15" rx="2" fill="white"/>
<rect x="675" y="312" width="8" height="31" rx="4" fill="white"/>
<rect x="723" y="312" width="8" height="31" rx="4" fill="white"/>
<circle cx="679" cy="450" r="9" fill="white"/>
<circle cx="727" cy="450" r="9" fill="white"/>
<circle cx="703" cy="450" r="63" stroke="white" stroke-width="2"/>
</svg>
