<svg width="28" height="28" viewBox="0 0 28 28" fill="none" xmlns="http://www.w3.org/2000/svg">
<path d="M15.7674 14L23.6338 6.13448C24.1221 5.64617 24.1221 4.85449 23.6338 4.36623C23.1455 3.87792 22.3538 3.87792 21.8655 4.36623L14 12.2326L6.13448 4.36623C5.64617 3.87792 4.85449 3.87792 4.36623 4.36623C3.87796 4.85453 3.87792 5.64621 4.36623 6.13448L12.2326 14L4.36623 21.8655C3.87792 22.3538 3.87792 23.1455 4.36623 23.6338C4.85453 24.122 5.64621 24.1221 6.13448 23.6338L14 15.7674L21.8655 23.6338C22.3538 24.1221 23.1455 24.1221 23.6337 23.6338C24.122 23.1455 24.122 22.3538 23.6337 21.8655L15.7674 14Z" fill="white"/>
</svg>
