<svg width="18" height="18" viewBox="0 0 18 18" fill="none" xmlns="http://www.w3.org/2000/svg">
<path d="M10.5907 8.99998L17.6704 1.92103C18.1099 1.48156 18.1099 0.769039 17.6704 0.329603C17.2309 -0.109868 16.5184 -0.109868 16.079 0.329603L8.99998 7.4093L1.92103 0.329603C1.48156 -0.109868 0.769039 -0.109868 0.329603 0.329603C-0.109833 0.769074 -0.109868 1.48159 0.329603 1.92103L7.4093 8.99998L0.329603 16.079C-0.109868 16.5184 -0.109868 17.231 0.329603 17.6704C0.769074 18.1098 1.48159 18.1099 1.92103 17.6704L8.99998 10.5907L16.0789 17.6704C16.5184 18.1099 17.2309 18.1099 17.6704 17.6704C18.1098 17.2309 18.1098 16.5184 17.6704 16.079L10.5907 8.99998Z" fill="white"/>
</svg>
