<svg width="13" height="14" viewBox="0 0 13 14" fill="none" xmlns="http://www.w3.org/2000/svg">
<g clip-path="url(#clip0_61_1967)">
<path d="M6.30344 13.0349C2.9757 13.0349 0.268555 10.3277 0.268555 6.99997C0.268555 3.67224 2.9757 0.965088 6.30344 0.965088C9.63117 0.965088 12.3383 3.67224 12.3383 6.99997C12.3383 10.3277 9.63117 13.0349 6.30344 13.0349ZM6.30344 1.9709C3.53041 1.9709 1.27437 4.22694 1.27437 6.99997C1.27437 9.773 3.53041 12.029 6.30344 12.029C9.07647 12.029 11.3325 9.773 11.3325 6.99997C11.3325 4.22694 9.07647 1.9709 6.30344 1.9709ZM8.81797 6.99997C8.81797 6.72186 8.59317 6.49706 8.31507 6.49706H6.80635V3.98253C6.80635 3.70442 6.58104 3.47962 6.30344 3.47962C6.02583 3.47962 5.80053 3.70442 5.80053 3.98253V6.99997C5.80053 7.27808 6.02583 7.50288 6.30344 7.50288H8.31507C8.59317 7.50288 8.81797 7.27808 8.81797 6.99997Z" fill="#9C9C9C"/>
</g>
<defs>
<clipPath id="clip0_61_1967">
<rect width="12.0698" height="12.0698" fill="white" transform="translate(0.268555 0.965088)"/>
</clipPath>
</defs>
</svg>
