<svg width="17" height="16" viewBox="0 0 17 16" fill="none" xmlns="http://www.w3.org/2000/svg">
<path d="M16.4807 6.11346C15.8415 5.03806 15.0351 4.07745 14.0938 3.26977L16.0764 1.23285C16.2053 1.09565 16.2767 0.91189 16.2751 0.72115C16.2735 0.530409 16.199 0.34795 16.0677 0.213071C15.9365 0.0781924 15.7589 0.00168498 15.5732 2.75003e-05C15.3876 -0.00162998 15.2087 0.0716951 15.0751 0.20421L12.9191 2.42227C11.5825 1.60664 10.0545 1.18154 8.5 1.19284C4.11633 1.19284 1.61826 4.27587 0.519332 6.11346C0.179831 6.67762 0 7.32778 0 7.99106C0 8.65434 0.179831 9.30451 0.519332 9.86866C1.15855 10.9441 1.96485 11.9047 2.90624 12.7123L0.92364 14.7493C0.856012 14.8164 0.80207 14.8966 0.764961 14.9854C0.727851 15.0742 0.708318 15.1696 0.707501 15.2662C0.706684 15.3628 0.7246 15.4586 0.760202 15.548C0.795805 15.6374 0.848381 15.7186 0.914864 15.7869C0.981346 15.8552 1.0604 15.9093 1.14742 15.9458C1.23444 15.9824 1.32768 16.0008 1.4217 16C1.51572 15.9991 1.60863 15.9791 1.69502 15.9409C1.7814 15.9028 1.85954 15.8474 1.92485 15.7779L4.08588 13.5577C5.42079 14.3732 6.94697 14.799 8.5 14.7893C12.8837 14.7893 15.3817 11.7063 16.4807 9.86866C16.8202 9.30451 17 8.65434 17 7.99106C17 7.32778 16.8202 6.67762 16.4807 6.11346ZM1.72588 9.107C1.52418 8.77167 1.41734 8.38526 1.41734 7.99106C1.41734 7.59686 1.52418 7.21045 1.72588 6.87512C2.67045 5.29942 4.80529 2.64779 8.5 2.64779C9.67559 2.64102 10.8347 2.93211 11.8747 3.49529L10.4493 4.95969C9.76952 4.496 8.95452 4.28823 8.14259 4.37163C7.33066 4.45504 6.57183 4.82448 5.99485 5.41727C5.41786 6.01006 5.05828 6.78969 4.9771 7.62386C4.89592 8.45803 5.09814 9.29537 5.54947 9.99379L3.91382 11.6742C3.04651 10.9538 2.30639 10.0854 1.72588 9.107ZM10.6242 7.99106C10.6242 8.56987 10.4004 9.12498 10.002 9.53426C9.60368 9.94354 9.06338 10.1735 8.5 10.1735C8.18456 10.1722 7.8735 10.0976 7.59013 9.95523L10.4118 7.05626C10.5504 7.34739 10.623 7.66698 10.6242 7.99106ZM6.37579 7.99106C6.37579 7.41225 6.59959 6.85714 6.99795 6.44786C7.39632 6.03858 7.93662 5.80865 8.5 5.80865C8.81544 5.8099 9.1265 5.88451 9.40987 6.02689L6.58821 8.92586C6.44963 8.63473 6.37701 8.31514 6.37579 7.99106ZM15.2741 9.107C14.3295 10.6827 12.1947 13.3343 8.5 13.3343C7.32441 13.3411 6.16532 13.05 5.12533 12.4868L6.55068 11.0224C7.23048 11.4861 8.04548 11.6939 8.85741 11.6105C9.66934 11.5271 10.4282 11.1576 11.0052 10.5649C11.5821 9.97206 11.9417 9.19244 12.0229 8.35826C12.1041 7.52409 11.9019 6.68675 11.4505 5.98833L13.0862 4.30787C13.9535 5.02828 14.6936 5.89671 15.2741 6.87512C15.4758 7.21045 15.5827 7.59686 15.5827 7.99106C15.5827 8.38526 15.4758 8.77167 15.2741 9.107Z" fill="white" fill-opacity="0.5"/>
</svg>
