<svg width="18" height="14" viewBox="0 0 18 14" fill="none" xmlns="http://www.w3.org/2000/svg">
<path d="M17.8661 6.13591C17.2076 4.69587 14.6253 0 9.00013 0C3.37499 0 0.792674 4.69587 0.134157 6.13591C0.0457583 6.32889 0 6.53866 0 6.75092C0 6.96319 0.0457583 7.17296 0.134157 7.36594C0.792674 8.80448 3.37499 13.5003 9.00013 13.5003C14.6253 13.5003 17.2076 8.80448 17.8661 7.36444C17.9543 7.17167 18 6.96217 18 6.75017C18 6.53818 17.9543 6.32867 17.8661 6.13591ZM9.00013 12.0003C4.26976 12.0003 2.06246 7.9757 1.49994 6.75842C2.06246 5.52464 4.26976 1.50004 9.00013 1.50004C13.7193 1.50004 15.9273 5.50739 16.5003 6.75017C15.9273 7.99295 13.7193 12.0003 9.00013 12.0003Z" fill="white" fill-opacity="0.5"/>
<path d="M9.0001 3.00024C8.2584 3.00024 7.53336 3.22018 6.91666 3.63225C6.29996 4.04431 5.8193 4.63 5.53546 5.31524C5.25162 6.00048 5.17736 6.7545 5.32206 7.48195C5.46676 8.20939 5.82392 8.8776 6.34838 9.40206C6.87284 9.92652 7.54104 10.2837 8.26849 10.4284C8.99594 10.5731 9.74996 10.4988 10.4352 10.215C11.1204 9.93114 11.7061 9.45048 12.1182 8.83378C12.5303 8.21708 12.7502 7.49204 12.7502 6.75034C12.749 5.75612 12.3535 4.80296 11.6505 4.09994C10.9475 3.39692 9.99432 3.00144 9.0001 3.00024ZM9.0001 9.0004C8.55508 9.0004 8.12005 8.86843 7.75003 8.62119C7.38001 8.37395 7.09162 8.02254 6.92132 7.6114C6.75101 7.20026 6.70645 6.74784 6.79327 6.31138C6.88009 5.87491 7.09439 5.47398 7.40907 5.15931C7.72374 4.84463 8.12467 4.63034 8.56113 4.54352C8.9976 4.4567 9.45001 4.50126 9.86116 4.67156C10.2723 4.84186 10.6237 5.13025 10.871 5.50027C11.1182 5.87029 11.2502 6.30532 11.2502 6.75034C11.2502 7.34709 11.0131 7.9194 10.5911 8.34137C10.1692 8.76334 9.59685 9.0004 9.0001 9.0004Z" fill="white" fill-opacity="0.5"/>
</svg>
