<svg width="13" height="14" viewBox="0 0 13 14" fill="none" xmlns="http://www.w3.org/2000/svg">
<path d="M6.30344 13.0349C5.48571 13.0349 4.71425 12.6758 4.18721 12.0497C3.41273 12.1382 2.61462 11.846 2.03627 11.2676C1.45843 10.6893 1.16675 9.88968 1.23665 9.07396C0.62763 8.58916 0.268555 7.8177 0.268555 6.99997C0.268555 6.18224 0.62763 5.41079 1.25425 4.88374C1.16624 4.11077 1.45793 3.31115 2.03627 2.73281C2.61462 2.15446 3.41273 1.86127 4.22945 1.93318C4.71425 1.32467 5.48571 0.965088 6.30344 0.965088C7.12117 0.965088 7.89262 1.32416 8.41967 1.95028C9.19515 1.86328 9.99226 2.15396 10.5706 2.7323C11.1484 3.31065 11.4401 4.11027 11.3702 4.92598C11.9792 5.41079 12.3383 6.18224 12.3383 6.99997C12.3383 7.8177 11.9792 8.58916 11.3526 9.1162C11.4406 9.88917 11.1489 10.6888 10.5706 11.2671C9.99176 11.8455 9.19214 12.1352 8.37743 12.0668C7.89262 12.6753 7.12117 13.0349 6.30344 13.0349ZM4.22794 11.0614C4.51007 11.0614 4.77158 11.1826 4.95615 11.4014C5.29209 11.8002 5.78293 12.029 6.30344 12.029C6.82395 12.029 7.31478 11.8002 7.65073 11.4014C7.8534 11.1605 8.1486 11.0388 8.46342 11.0645C8.98343 11.1082 9.49137 10.9237 9.85949 10.5555C10.2271 10.1879 10.4127 9.67896 10.3684 9.15945C10.3413 8.84564 10.464 8.54943 10.7054 8.34625C11.1037 8.01081 11.3325 7.51947 11.3325 6.99947C11.3325 6.47946 11.1037 5.98812 10.7054 5.65268C10.4645 5.45001 10.3413 5.1533 10.3684 4.83948C10.4127 4.31998 10.2276 3.81104 9.85949 3.44341C9.49137 3.07579 8.98041 2.89323 8.46393 2.93447C8.14911 2.96263 7.8534 2.83842 7.65073 2.59803C7.31478 2.19922 6.82395 1.9704 6.30344 1.9704C5.78293 1.9704 5.29209 2.19922 4.95615 2.59803C4.75298 2.83892 4.45676 2.95962 4.14345 2.93497C3.62093 2.88971 3.11551 3.07579 2.74738 3.44392C2.37976 3.81154 2.19419 4.32048 2.23844 4.83999C2.2656 5.1538 2.14289 5.45001 1.90149 5.65319C1.50319 5.98863 1.27437 6.47997 1.27437 6.99997C1.27437 7.51998 1.50319 8.01132 1.90149 8.34676C2.14239 8.54943 2.2656 8.84614 2.23844 9.15996C2.19419 9.67946 2.37926 10.1884 2.74738 10.556C3.11551 10.9237 3.62898 11.1067 4.14295 11.065C4.17162 11.0625 4.19978 11.0614 4.22794 11.0614ZM6.70627 8.57659L9.08954 6.27931C9.2892 6.08669 9.29523 5.76785 9.10212 5.5682C8.9095 5.36854 8.59116 5.36251 8.391 5.55512L6.00119 7.85894C5.80455 8.05557 5.48722 8.05557 5.27701 7.84636L4.13138 6.78171C3.92921 6.59312 3.61037 6.60418 3.42078 6.80786C3.23168 7.01104 3.24325 7.32938 3.44693 7.51847L4.57947 8.57055C4.87418 8.86525 5.26192 9.01261 5.64865 9.01261C6.03338 9.01261 6.41609 8.86727 6.70677 8.57709L6.70627 8.57659Z" fill="white"/>
</svg>
