<svg width="32" height="30" viewBox="0 0 32 30" fill="none" xmlns="http://www.w3.org/2000/svg">
<path d="M15.965 0C7.59726 0 0.790039 6.72875 0.790039 15C0.790039 23.2712 7.59726 30 15.965 30C24.3327 30 31.1399 23.2712 31.1399 15C31.1399 6.72875 24.3327 0 15.965 0ZM23.8053 13.14L18.2083 18.5713C17.2182 19.5312 15.9435 20.01 14.6675 20.01C13.4055 20.01 12.1434 19.54 11.157 18.5987L8.75561 16.265C8.25737 15.7812 8.25105 14.99 8.74044 14.4975C9.22856 14.0037 10.0316 13.9975 10.5285 14.4825L12.9224 16.8088C13.9037 17.7463 15.4528 17.7412 16.4392 16.7862L22.0349 11.3562C22.5319 10.8713 23.3299 10.88 23.823 11.3725C24.3124 11.865 24.3049 12.6562 23.8053 13.14Z" fill="white" fill-opacity="0.8"/>
</svg>
