<svg width="28" height="28" viewBox="0 0 28 28" fill="none" xmlns="http://www.w3.org/2000/svg">
<path d="M13.7977 17.5C13.4788 17.5 13.173 17.6229 12.9475 17.8417C12.7221 18.0605 12.5954 18.3572 12.5954 18.6667V22.1667C12.5954 23.0949 12.2154 23.9852 11.5389 24.6415C10.8625 25.2979 9.94507 25.6667 8.98846 25.6667H6.01154C5.05493 25.6667 4.13749 25.2979 3.46106 24.6415C2.78463 23.9852 2.40462 23.0949 2.40462 22.1667V5.83333C2.40462 4.90508 2.78463 4.01484 3.46106 3.35846C4.13749 2.70208 5.05493 2.33333 6.01154 2.33333H8.98846C9.94507 2.33333 10.8625 2.70208 11.5389 3.35846C12.2154 4.01484 12.5954 4.90508 12.5954 5.83333V9.33333C12.5954 9.64275 12.7221 9.9395 12.9475 10.1583C13.173 10.3771 13.4788 10.5 13.7977 10.5C14.1166 10.5 14.4224 10.3771 14.6479 10.1583C14.8733 9.9395 15 9.64275 15 9.33333V5.83333C14.9981 4.28681 14.3641 2.80415 13.2372 1.71059C12.1102 0.617029 10.5822 0.0018525 8.98846 0H6.01154C4.41777 0.0018525 2.88982 0.617029 1.76285 1.71059C0.635879 2.80415 0.00190909 4.28681 0 5.83333L0 22.1667C0.00190909 23.7132 0.635879 25.1959 1.76285 26.2894C2.88982 27.383 4.41777 27.9981 6.01154 28H8.98846C10.5822 27.9981 12.1102 27.383 13.2372 26.2894C14.3641 25.1959 14.9981 23.7132 15 22.1667V18.6667C15 18.3572 14.8733 18.0605 14.6479 17.8417C14.4224 17.6229 14.1166 17.5 13.7977 17.5Z" fill="white" fill-opacity="0.7"/>
<path d="M26.9703 11.5802L21.5877 6.34829C21.4795 6.23933 21.3499 6.15241 21.2068 6.09262C21.0636 6.03283 20.9096 6.00136 20.7537 6.00004C20.5979 5.99873 20.4433 6.02759 20.2991 6.08496C20.1548 6.14232 20.0238 6.22703 19.9136 6.33415C19.8034 6.44127 19.7162 6.56864 19.6572 6.70885C19.5982 6.84906 19.5685 6.99929 19.5699 7.15077C19.5712 7.30225 19.6036 7.45195 19.6651 7.59114C19.7266 7.73033 19.816 7.85622 19.9281 7.96146L24.9304 12.8249L7.17369 12.8591C6.86241 12.8591 6.56387 12.9793 6.34377 13.1933C6.12366 13.4072 6 13.6974 6 14C6 14.3026 6.12366 14.5928 6.34377 14.8067C6.56387 15.0207 6.86241 15.1409 7.17369 15.1409L24.9996 15.1055L19.9258 20.0385C19.8137 20.1438 19.7243 20.2697 19.6628 20.4089C19.6013 20.548 19.5689 20.6978 19.5675 20.8492C19.5662 21.0007 19.5959 21.1509 19.6549 21.2911C19.7139 21.4314 19.801 21.5587 19.9112 21.6659C20.0214 21.773 20.1525 21.8577 20.2967 21.915C20.441 21.9724 20.5955 22.0013 20.7514 22C20.9072 21.9986 21.0612 21.9672 21.2044 21.9074C21.3476 21.8476 21.4771 21.7607 21.5854 21.6517L26.9679 16.4198C27.6283 15.7782 27.9996 14.908 28 14.0005C28.0004 13.0929 27.63 12.2224 26.9703 11.5802Z" fill="white" fill-opacity="0.7"/>
</svg>
