<svg width="20" height="20" viewBox="0 0 20 20" fill="none" xmlns="http://www.w3.org/2000/svg">
<path d="M9.99982 4.16664C11.1504 4.16664 12.0831 3.23391 12.0831 2.08332C12.0831 0.932734 11.1504 0 9.99982 0C8.84924 0 7.9165 0.932734 7.9165 2.08332C7.9165 3.23391 8.84924 4.16664 9.99982 4.16664Z" fill="white" fill-opacity="0.5"/>
<path d="M9.99982 12.0836C11.1504 12.0836 12.0831 11.1509 12.0831 10.0003C12.0831 8.84973 11.1504 7.91699 9.99982 7.91699C8.84924 7.91699 7.9165 8.84973 7.9165 10.0003C7.9165 11.1509 8.84924 12.0836 9.99982 12.0836Z" fill="white" fill-opacity="0.5"/>
<path d="M9.99982 19.9996C11.1504 19.9996 12.0831 19.0669 12.0831 17.9163C12.0831 16.7657 11.1504 15.833 9.99982 15.833C8.84924 15.833 7.9165 16.7657 7.9165 17.9163C7.9165 19.0669 8.84924 19.9996 9.99982 19.9996Z" fill="white" fill-opacity="0.5"/>
</svg>
