<svg width="100" height="100" viewBox="0 0 100 100" fill="none" xmlns="http://www.w3.org/2000/svg">
<path fill-rule="evenodd" clip-rule="evenodd" d="M100 50C100 77.6142 77.6142 100 50 100C22.3858 100 0 77.6142 0 50C0 22.3858 22.3858 0 50 0C77.6142 0 100 22.3858 100 50ZM29.1667 27C29.1667 25.8954 30.0621 25 31.1667 25H43.8333C44.9379 25 45.8333 25.8954 45.8333 27V73C45.8333 74.1046 44.9379 75 43.8333 75H31.1667C30.0621 75 29.1667 74.1046 29.1667 73V27ZM56.1667 25C55.0621 25 54.1667 25.8954 54.1667 27V73C54.1667 74.1046 55.0621 75 56.1667 75H68.8333C69.9379 75 70.8333 74.1046 70.8333 73V27C70.8333 25.8954 69.9379 25 68.8333 25H56.1667Z" fill="white" fill-opacity="0.86"/>
</svg>
