<svg width="48" height="48" viewBox="0 0 48 48" fill="none" xmlns="http://www.w3.org/2000/svg">
<path fill-rule="evenodd" clip-rule="evenodd" d="M48 24C48 37.2548 37.2548 48 24 48C10.7452 48 0 37.2548 0 24C0 10.7452 10.7452 0 24 0C37.2548 0 48 10.7452 48 24ZM14 14C14 12.8954 14.8954 12 16 12H20C21.1046 12 22 12.8954 22 14V34C22 35.1046 21.1046 36 20 36H16C14.8954 36 14 35.1046 14 34V14ZM28 12C26.8954 12 26 12.8954 26 14V34C26 35.1046 26.8954 36 28 36H32C33.1046 36 34 35.1046 34 34V14C34 12.8954 33.1046 12 32 12H28Z" fill="white" fill-opacity="0.9"/>
</svg>
