<svg width="28" height="28" viewBox="0 0 28 28" fill="none" xmlns="http://www.w3.org/2000/svg">
<g clip-path="url(#clip0_224_727)">
<path d="M26.8333 0H25.6667C22.4502 0 19.8333 2.61683 19.8333 5.83333V16.6378C18.7227 15.7197 17.2993 15.1667 15.75 15.1667C12.2127 15.1667 9.33333 18.0448 9.33333 21.5833C9.33333 25.1218 12.2127 28 15.75 28C19.2873 28 22.1667 25.1218 22.1667 21.5833V5.83333C22.1667 3.90367 23.737 2.33333 25.6667 2.33333H26.8333C27.4785 2.33333 28 1.81067 28 1.16667C28 0.522667 27.4785 0 26.8333 0ZM15.75 25.6667C13.4983 25.6667 11.6667 23.835 11.6667 21.5833C11.6667 19.3317 13.4983 17.5 15.75 17.5C18.0017 17.5 19.8333 19.3317 19.8333 21.5833C19.8333 23.835 18.0017 25.6667 15.75 25.6667ZM0 1.16667C0 0.522667 0.5215 0 1.16667 0H14C14.6452 0 15.1667 0.522667 15.1667 1.16667C15.1667 1.81067 14.6452 2.33333 14 2.33333H1.16667C0.5215 2.33333 0 1.81067 0 1.16667ZM0 8.16667C0 7.52267 0.5215 7 1.16667 7H14C14.6452 7 15.1667 7.52267 15.1667 8.16667C15.1667 8.81067 14.6452 9.33333 14 9.33333H1.16667C0.5215 9.33333 0 8.81067 0 8.16667ZM9.33333 15.1667C9.33333 15.8107 8.81183 16.3333 8.16667 16.3333H1.16667C0.5215 16.3333 0 15.8107 0 15.1667C0 14.5227 0.5215 14 1.16667 14H8.16667C8.81183 14 9.33333 14.5227 9.33333 15.1667Z" fill="white"/>
</g>
<defs>
<clipPath id="clip0_224_727">
<rect width="28" height="28" fill="white"/>
</clipPath>
</defs>
</svg>
