<svg width="62" height="34" viewBox="0 0 62 34" fill="none" xmlns="http://www.w3.org/2000/svg">
<path d="M1.39062 29.0005V13.0005H7.70313C8.91667 13.0005 9.95052 13.2323 10.8047 13.6958C11.6589 14.1541 12.3099 14.7922 12.7578 15.6099C13.2109 16.4224 13.4375 17.3599 13.4375 18.4224C13.4375 19.4849 13.2083 20.4224 12.75 21.2349C12.2917 22.0474 11.6276 22.6802 10.7578 23.1333C9.89323 23.5864 8.84635 23.813 7.61719 23.813H3.59375V21.1021H7.07031C7.72135 21.1021 8.25781 20.9901 8.67969 20.7661C9.10677 20.5369 9.42448 20.2218 9.63281 19.8208C9.84635 19.4146 9.95313 18.9484 9.95313 18.4224C9.95313 17.8911 9.84635 17.4276 9.63281 17.0317C9.42448 16.6307 9.10677 16.3208 8.67969 16.1021C8.2526 15.8781 7.71094 15.7661 7.05469 15.7661H4.77344V29.0005H1.39062ZM15.6348 29.0005V13.0005H19.0176V26.2114H25.877V29.0005H15.6348ZM57.2422 18.1724C57.1328 17.7922 56.9792 17.4562 56.7813 17.1646C56.5833 16.8677 56.3411 16.6177 56.0547 16.4146C55.7734 16.2062 55.4505 16.0474 55.0859 15.938C54.7266 15.8286 54.3281 15.7739 53.8906 15.7739C53.0729 15.7739 52.3542 15.9771 51.7344 16.3833C51.1198 16.7896 50.6406 17.3807 50.2969 18.1567C49.9531 18.9276 49.7813 19.8703 49.7813 20.9849C49.7813 22.0994 49.9505 23.0474 50.2891 23.8286C50.6276 24.6099 51.1068 25.2062 51.7266 25.6177C52.3464 26.0239 53.0781 26.2271 53.9219 26.2271C54.6875 26.2271 55.3411 26.0916 55.8828 25.8208C56.4297 25.5448 56.8464 25.1567 57.1328 24.6567C57.4245 24.1567 57.5703 23.5656 57.5703 22.8833L58.2578 22.9849H54.1328V20.438H60.8281V22.4536C60.8281 23.8599 60.5313 25.0682 59.9375 26.0786C59.3438 27.0838 58.526 27.8599 57.4844 28.4067C56.4427 28.9484 55.25 29.2192 53.9063 29.2192C52.4063 29.2192 51.0885 28.8885 49.9531 28.2271C48.8177 27.5604 47.9323 26.6151 47.2969 25.3911C46.6667 24.1619 46.3516 22.7036 46.3516 21.0161C46.3516 19.7192 46.5391 18.563 46.9141 17.5474C47.2943 16.5265 47.8255 15.6619 48.5078 14.9536C49.1901 14.2453 49.9844 13.7062 50.8906 13.3364C51.7969 12.9666 52.7786 12.7817 53.8359 12.7817C54.7422 12.7817 55.5859 12.9146 56.3672 13.1802C57.1484 13.4406 57.8411 13.8104 58.4453 14.2896C59.0547 14.7687 59.5521 15.339 59.9375 16.0005C60.3229 16.6567 60.5703 17.3807 60.6797 18.1724H57.2422Z" fill="white"/>
<path d="M26.3757 16.1441L27.3708 16.0439C27.324 15.5814 27.6862 15.1793 28.1511 15.178L41.7394 15.1462C42.0436 15.1457 42.2837 15.3856 42.2987 15.6752L42.2911 15.8015C42.2783 15.8751 42.2697 15.9462 42.2635 16.0101L42.2504 16.1737C42.221 16.6309 41.9512 17.3605 41.4784 18.1832C41.0207 18.9795 40.4492 19.7316 39.9633 20.2175L36.7876 23.3933C36.2969 23.8841 35.9937 24.5276 35.9244 25.2121L35.9092 25.5077L35.9058 27.0787C35.9044 27.6736 35.4266 28.1387 34.8575 28.1352H34.8506L34.843 28.1359L34.7408 28.1317C34.639 28.1225 34.5392 28.0978 34.4446 28.0592C34.3185 28.0077 34.2037 27.9315 34.1076 27.8355L34.0392 27.7602C33.9748 27.6815 33.9226 27.5932 33.8839 27.4985C33.8452 27.4039 33.8207 27.3041 33.8114 27.2023L33.8065 27.0994L33.8072 27.0932L33.8107 25.5277C33.8126 24.7296 33.496 23.9631 32.9316 23.3988L29.778 20.2451C29.3 19.7672 28.6767 18.9687 28.1752 18.13C27.9265 17.714 27.7202 17.3076 27.5779 16.9444C27.4306 16.5684 27.3764 16.2999 27.3756 16.1399L26.3757 16.1441ZM38.333 6.65197C38.4549 6.57065 38.6615 6.49203 38.9282 6.4752L39.0463 6.47175L39.0567 6.47244L39.0656 6.47175C39.3902 6.46783 39.6391 6.55639 39.7755 6.64714C39.8134 6.67236 39.8356 6.69298 39.8487 6.70653L39.8459 11.1384C39.8456 11.5808 39.486 11.9395 39.0435 11.9394C38.6006 11.9391 38.2423 11.5793 38.2432 11.1363L38.2529 6.71689C38.2662 6.70246 38.2908 6.68015 38.333 6.65197ZM29.8988 6.67407C30.0425 6.57887 30.2939 6.4895 30.617 6.49177L30.6273 6.49246L30.6363 6.49177C30.9608 6.48786 31.2098 6.57642 31.3462 6.66717C31.3841 6.69241 31.4062 6.713 31.4194 6.72655L31.4097 11.1487C31.4087 11.5655 31.0919 11.9078 30.686 11.9498L30.6038 11.9546C30.1842 11.9556 29.8385 11.6362 29.798 11.2275L29.7945 11.1453L29.8042 6.75348C29.8173 6.73742 29.8449 6.70983 29.8988 6.67407Z" fill="white" stroke="white" stroke-width="2"/>
</svg>
