<svg width="36" height="36" viewBox="0 0 36 36" fill="none" xmlns="http://www.w3.org/2000/svg">
<path d="M24.6103 4.08644L24.6051 4.09148L24.6 4.09659L18.4001 10.2674C18.01 10.6557 17.3794 10.6557 16.9892 10.2674L15.4317 8.71716C15.0389 8.32626 15.0389 7.69054 15.4317 7.29963L21.6114 1.14886C21.7149 1.05154 21.9558 0.942372 22.4055 1.03347C22.851 1.12373 23.3883 1.39964 23.8649 1.88335L23.8717 1.89026L23.8787 1.89704C24.3654 2.37216 24.6399 2.90487 24.7273 3.33946C24.8161 3.78152 24.7007 3.99904 24.6103 4.08644ZM7.22396 9.64727L7.25774 9.61316L7.2881 9.57597L8.02989 8.66728C8.4037 8.20936 9.09102 8.17388 9.50999 8.59089L27.4194 26.4164C27.8603 26.8552 27.7978 27.5858 27.2888 27.9434L26.5852 28.4377C26.4424 28.5381 26.3211 28.6435 26.2253 28.7303C25.5269 29.3631 24.1862 29.9619 22.5735 30.4011C20.9926 30.8315 19.3086 31.0663 18.047 31.0663H9.75858C8.96537 31.0663 8.20445 31.3805 7.64225 31.94L5.3147 34.2567C4.31557 35.2511 2.71936 35.2424 1.75176 34.2627L1.74661 34.2575L1.74138 34.2524C1.50621 34.0212 1.31976 33.746 1.19259 33.4431C1.06542 33.1401 1 32.8152 1 32.4872C1 32.1591 1.06542 31.8342 1.19259 31.5313C1.31976 31.2283 1.50621 30.9532 1.74138 30.722L1.7414 30.722L1.74572 30.7177L4.06937 28.4049C4.63503 27.8419 4.95303 27.0767 4.95303 26.2786V18.0384C4.95303 16.8121 5.17451 15.0301 5.59521 13.358C5.80466 12.5255 6.05792 11.7429 6.34588 11.0841C6.63939 10.4126 6.94257 9.9314 7.22396 9.64727ZM31.8833 11.3591L31.8885 11.354L31.8935 11.3488C31.9825 11.2576 32.2052 11.1415 32.6534 11.2307C33.093 11.3182 33.6293 11.5927 34.1065 12.077L34.1134 12.0839L34.1203 12.0907C34.607 12.5658 34.8816 13.0985 34.9689 13.5331C35.0577 13.9752 34.9423 14.1927 34.8519 14.2801L34.8462 14.2857L34.8405 14.2913L28.6444 20.4774C28.2537 20.8675 27.6208 20.8671 27.2305 20.4766L25.6911 18.9361C25.3001 18.5449 25.301 17.9106 25.693 17.5205L31.8833 11.3591Z" fill="white" stroke="white" stroke-width="2"/>
</svg>
