<svg width="40" height="40" viewBox="0 0 40 40" fill="none" xmlns="http://www.w3.org/2000/svg">
<g clip-path="url(#clip0_228_1992)">
<path d="M31.6667 0H8.33333C6.12401 0.00264643 4.00593 0.88147 2.4437 2.4437C0.88147 4.00593 0.00264643 6.12401 0 8.33333L0 31.6667C0.00264643 33.876 0.88147 35.9941 2.4437 37.5563C4.00593 39.1185 6.12401 39.9974 8.33333 40H31.6667C33.876 39.9974 35.9941 39.1185 37.5563 37.5563C39.1185 35.9941 39.9974 33.876 40 31.6667V8.33333C39.9974 6.12401 39.1185 4.00593 37.5563 2.4437C35.9941 0.88147 33.876 0.00264643 31.6667 0ZM8.33333 3.33333H31.6667C32.9927 3.33333 34.2645 3.86012 35.2022 4.7978C36.1399 5.73548 36.6667 7.00725 36.6667 8.33333V31.6667C36.6638 32.4091 36.4929 33.1413 36.1667 33.8083L20.895 18.5367C20.1211 17.7626 19.2024 17.1486 18.1912 16.7297C17.18 16.3107 16.0962 16.0951 15.0017 16.0951C13.9071 16.0951 12.8233 16.3107 11.8121 16.7297C10.8009 17.1486 9.88218 17.7626 9.10833 18.5367L3.33333 24.31V8.33333C3.33333 7.00725 3.86012 5.73548 4.7978 4.7978C5.73548 3.86012 7.00725 3.33333 8.33333 3.33333ZM8.33333 36.6667C7.00725 36.6667 5.73548 36.1399 4.7978 35.2022C3.86012 34.2645 3.33333 32.9927 3.33333 31.6667V29.0233L11.4633 20.8933C11.9277 20.4287 12.479 20.0601 13.0858 19.8086C13.6927 19.5572 14.3431 19.4277 15 19.4277C15.6569 19.4277 16.3073 19.5572 16.9142 19.8086C17.521 20.0601 18.0723 20.4287 18.5367 20.8933L33.8083 36.1667C33.1413 36.4929 32.4091 36.6638 31.6667 36.6667H8.33333Z" fill="url(#paint0_linear_228_1992)"/>
<path d="M26.6667 17.4999C27.8204 17.4999 28.9482 17.1578 29.9075 16.5168C30.8668 15.8759 31.6145 14.9648 32.056 13.8989C32.4975 12.833 32.613 11.6601 32.388 10.5286C32.1629 9.39701 31.6073 8.3576 30.7915 7.5418C29.9757 6.72599 28.9363 6.17042 27.8047 5.94534C26.6732 5.72026 25.5003 5.83578 24.4344 6.27729C23.3685 6.7188 22.4574 7.46648 21.8165 8.42576C21.1755 9.38505 20.8334 10.5129 20.8334 11.6666C20.8334 13.2137 21.448 14.6974 22.5419 15.7914C23.6359 16.8853 25.1196 17.4999 26.6667 17.4999ZM26.6667 9.16659C27.1612 9.16659 27.6445 9.31321 28.0556 9.58791C28.4668 9.86262 28.7872 10.2531 28.9764 10.7099C29.1656 11.1667 29.2151 11.6694 29.1187 12.1543C29.0222 12.6393 28.7841 13.0847 28.4345 13.4344C28.0848 13.784 27.6394 14.0221 27.1544 14.1186C26.6695 14.215 26.1668 14.1655 25.71 13.9763C25.2532 13.7871 24.8627 13.4666 24.588 13.0555C24.3133 12.6444 24.1667 12.161 24.1667 11.6666C24.1667 11.0035 24.4301 10.3677 24.8989 9.89882C25.3678 9.42998 26.0037 9.16659 26.6667 9.16659Z" fill="url(#paint1_linear_228_1992)"/>
</g>
<defs>
<linearGradient id="paint0_linear_228_1992" x1="0" y1="20" x2="40" y2="20" gradientUnits="userSpaceOnUse">
<stop stop-color="#8307FF"/>
<stop offset="1" stop-color="#5500DF"/>
</linearGradient>
<linearGradient id="paint1_linear_228_1992" x1="20.8334" y1="11.6666" x2="32.5" y2="11.6666" gradientUnits="userSpaceOnUse">
<stop stop-color="#8307FF"/>
<stop offset="1" stop-color="#5500DF"/>
</linearGradient>
<clipPath id="clip0_228_1992">
<rect width="40" height="40" fill="white"/>
</clipPath>
</defs>
</svg>
