<svg width="30" height="30" viewBox="0 0 30 30" fill="none" xmlns="http://www.w3.org/2000/svg">
<path d="M4.80769 22C4.36162 22 4 21.6384 4 21.1923C4 20.7462 4.36162 20.3846 4.80769 20.3846H14.1923C14.6384 20.3846 15 20.7462 15 21.1923C15 21.6384 14.6384 22 14.1923 22H4.80769ZM4.80769 16.3462C4.36162 16.3462 4 15.9845 4 15.5385C4 15.0924 4.36162 14.7308 4.80769 14.7308H8.69231C9.13838 14.7308 9.5 15.0924 9.5 15.5385C9.5 15.9845 9.13838 16.3462 8.69231 16.3462H4.80769ZM4.80769 10.6923C4.36162 10.6923 4 10.3307 4 9.88462C4 9.43854 4.36162 9.07692 4.80769 9.07692H8.69231C9.13838 9.07692 9.5 9.43854 9.5 9.88462C9.5 10.3307 9.13838 10.6923 8.69231 10.6923H4.80769ZM25.4103 21.4466C25.0962 21.7541 24.5938 21.7541 24.2797 21.4466L21.0594 18.2938C20.7061 17.9479 20.1576 17.9225 19.7207 18.1539C19.4584 18.2928 19.1865 18.4081 18.905 18.5C18.355 18.6795 17.7867 18.7692 17.2 18.7692C15.6783 18.7692 14.3812 18.2442 13.3088 17.1942C12.2362 16.1442 11.7 14.8744 11.7 13.3846C11.7 11.8949 12.2362 10.625 13.3088 9.575C14.3812 8.525 15.6783 8 17.2 8C18.7217 8 20.0188 8.525 21.0913 9.575C22.1638 10.625 22.7 11.8949 22.7 13.3846C22.7 13.959 22.6083 14.5154 22.425 15.0538C22.3359 15.3156 22.2251 15.5688 22.0927 15.8136C21.8499 16.2624 21.8761 16.8319 22.2407 17.1888L25.4103 20.2919C25.7339 20.6087 25.7339 21.1297 25.4103 21.4466ZM17.1934 17.1538C18.2611 17.1538 19.1708 16.7881 19.9225 16.0565C20.6742 15.3247 21.05 14.4362 21.05 13.3911C21.05 12.3458 20.6764 11.4551 19.9291 10.7192C19.1817 9.98331 18.2741 9.61538 17.2066 9.61538C16.1389 9.61538 15.2292 9.98116 14.4775 10.7128C13.7258 11.4445 13.35 12.333 13.35 13.3782C13.35 14.4235 13.7236 15.3141 14.4709 16.05C15.2184 16.7859 16.1259 17.1538 17.1934 17.1538Z" fill="white"/>
</svg>
