<svg width="12" height="10" viewBox="0 0 12 10" fill="none" xmlns="http://www.w3.org/2000/svg">
<path d="M0 3.3334C0 2.87316 0.383767 2.50007 0.857167 2.50007C1.33057 2.50007 1.71433 2.87316 1.71433 3.3334V9.16668C1.71433 9.62691 1.33057 10 0.857167 10C0.383767 10 0 9.62691 0 9.16668V3.3334Z" fill="white"/>
<path d="M3.42878 0.833325C3.42878 0.373092 3.81254 0 4.28594 0C4.75934 0 5.14311 0.373092 5.14311 0.833325V9.16658C5.14311 9.62681 4.75934 9.9999 4.28594 9.9999C3.81254 9.9999 3.42878 9.62681 3.42878 9.16658V0.833325Z" fill="white"/>
<path d="M6.85755 6.66657C6.85755 6.20634 7.24132 5.83324 7.71472 5.83324C8.18812 5.83324 8.57189 6.20634 8.57189 6.66657V9.16655C8.57189 9.62678 8.18812 9.99987 7.71472 9.99987C7.24132 9.99987 6.85755 9.62678 6.85755 9.16655V6.66657Z" fill="white"/>
<path d="M11.1428 1.6667C11.6162 1.6667 12 2.03979 12 2.50003C12 2.96026 11.6162 3.33335 11.1428 3.33335H7.71416C7.24076 3.33335 6.857 2.96026 6.857 2.50003C6.857 2.03979 7.24076 1.6667 7.71416 1.6667L11.1428 1.6667Z" fill="white"/>
<path d="M8.5717 0.833325C8.5717 0.373093 8.95547 0 9.42887 0C9.90227 0 10.286 0.373092 10.286 0.833325V4.16663C10.286 4.62686 9.90227 4.99995 9.42887 4.99995C8.95547 4.99995 8.5717 4.62686 8.5717 4.16663V0.833325Z" fill="white"/>
</svg>
